<svg xmlns="http://www.w3.org/2000/svg" width="508.02" height="68.11" viewBox="0 0 508.02 68.11"><path d="M119.63,9.08h8.43V35a13.56,13.56,0,0,1-7.87,12.73,21.58,21.58,0,0,1-17.35,0A13.54,13.54,0,0,1,95,35V9.08h8.43V34.27a8.06,8.06,0,0,0,1,4,7.26,7.26,0,0,0,2.84,2.79,9.53,9.53,0,0,0,8.54,0,7.21,7.21,0,0,0,2.82-2.79,8.06,8.06,0,0,0,1-4Z"/><path d="M133.74,60.19V19.05h8.19v5h.37a10.7,10.7,0,0,1,1.58-2.46,8.51,8.51,0,0,1,2.73-2.11,9.35,9.35,0,0,1,4.2-.85,11.29,11.29,0,0,1,6,1.71,12,12,0,0,1,4.42,5.12,19.64,19.64,0,0,1,1.65,8.56,19.91,19.91,0,0,1-1.6,8.45A12,12,0,0,1,157,47.7a11.21,11.21,0,0,1-6.16,1.76,9.4,9.4,0,0,1-4.1-.8,8.39,8.39,0,0,1-2.76-2,9.94,9.94,0,0,1-1.63-2.47H142v16ZM141.87,34a13.17,13.17,0,0,0,.74,4.66,6.92,6.92,0,0,0,2.14,3.09,5.38,5.38,0,0,0,3.41,1.1,5.32,5.32,0,0,0,3.43-1.12,7,7,0,0,0,2.13-3.12,13.32,13.32,0,0,0,.73-4.61,13.21,13.21,0,0,0-.72-4.55,6.78,6.78,0,0,0-2.12-3.08,5.41,5.41,0,0,0-3.45-1.11,5.47,5.47,0,0,0-3.42,1.07,6.64,6.64,0,0,0-2.13,3A13,13,0,0,0,141.87,34Z"/><path d="M178.37,49.46a11.25,11.25,0,0,1-6.17-1.76,12,12,0,0,1-4.36-5.2,19.9,19.9,0,0,1-1.61-8.45,19.49,19.49,0,0,1,1.66-8.56,11.89,11.89,0,0,1,4.41-5.12,11.23,11.23,0,0,1,6-1.71,9.33,9.33,0,0,1,4.19.85,8.3,8.3,0,0,1,2.73,2.11,10.44,10.44,0,0,1,1.59,2.46h.25v-15h8.28V49h-8.18V44.18h-.35a10.64,10.64,0,0,1-1.65,2.47,8.19,8.19,0,0,1-2.74,2A9.43,9.43,0,0,1,178.37,49.46Zm2.63-6.6a5.31,5.31,0,0,0,3.39-1.1,7,7,0,0,0,2.15-3.09,13.16,13.16,0,0,0,.75-4.66,13.23,13.23,0,0,0-.74-4.63,6.67,6.67,0,0,0-2.15-3,5.45,5.45,0,0,0-3.4-1.07,5.37,5.37,0,0,0-3.45,1.11,6.72,6.72,0,0,0-2.13,3.08A13.21,13.21,0,0,0,174.7,34a13.56,13.56,0,0,0,.73,4.61,7,7,0,0,0,2.13,3.12A5.29,5.29,0,0,0,181,42.86Z"/><path d="M209.62,49.54a12.31,12.31,0,0,1-5.1-1,8.2,8.2,0,0,1-3.54-3,8.88,8.88,0,0,1-1.29-4.94,8.74,8.74,0,0,1,.91-4.19,7.55,7.55,0,0,1,2.5-2.73,12,12,0,0,1,3.59-1.56,28.18,28.18,0,0,1,4.24-.74c1.74-.18,3.14-.35,4.21-.51a5.89,5.89,0,0,0,2.31-.73,1.65,1.65,0,0,0,.73-1.44V28.6A3.6,3.6,0,0,0,217,25.74a4.84,4.84,0,0,0-3.29-1,5.81,5.81,0,0,0-3.56,1,4.56,4.56,0,0,0-1.75,2.46l-7.68-.62a10.54,10.54,0,0,1,2.3-4.73,11.12,11.12,0,0,1,4.43-3.07,16.76,16.76,0,0,1,6.3-1.09,19.28,19.28,0,0,1,4.79.59,12.64,12.64,0,0,1,4.07,1.81,9,9,0,0,1,2.81,3.15,9.5,9.5,0,0,1,1,4.58V49H218.6V44.83h-.23a8.31,8.31,0,0,1-1.93,2.46,8.67,8.67,0,0,1-2.9,1.66A12,12,0,0,1,209.62,49.54ZM212,43.81a6.84,6.84,0,0,0,3.23-.73,5.71,5.71,0,0,0,2.21-2,5.18,5.18,0,0,0,.79-2.83V35.11a4.31,4.31,0,0,1-1.06.45,14.54,14.54,0,0,1-1.51.37c-.56.11-1.11.21-1.67.3l-1.52.22a10,10,0,0,0-2.55.68,4.06,4.06,0,0,0-1.7,1.26,3.13,3.13,0,0,0-.6,2,3,3,0,0,0,1.23,2.58A5.3,5.3,0,0,0,212,43.81Z"/><path d="M247.74,19.05v6.24h-18V19.05Zm-13.93-7.16h8.3V39.78a3.74,3.74,0,0,0,.35,1.78,1.88,1.88,0,0,0,1,.89,4,4,0,0,0,1.47.25,5.79,5.79,0,0,0,1.17-.11l.9-.16,1.3,6.17c-.41.13-1,.29-1.75.46a14.35,14.35,0,0,1-2.75.32,12.52,12.52,0,0,1-5.25-.79A7.35,7.35,0,0,1,235,45.74a8.72,8.72,0,0,1-1.23-4.87Z"/><path d="M265.36,49.56a15.92,15.92,0,0,1-7.94-1.88,12.72,12.72,0,0,1-5.11-5.34,17.61,17.61,0,0,1-1.79-8.19,17.52,17.52,0,0,1,1.79-8.1,13.23,13.23,0,0,1,5.06-5.44A14.64,14.64,0,0,1,265,18.66a15.8,15.8,0,0,1,5.52.95A12.42,12.42,0,0,1,275,22.44a12.81,12.81,0,0,1,3,4.75,18.78,18.78,0,0,1,1.07,6.67v2.28H253.83V31h17.45a6.34,6.34,0,0,0-.78-3.17,5.6,5.6,0,0,0-2.15-2.17,6.23,6.23,0,0,0-3.18-.79,6.35,6.35,0,0,0-3.34.87A6.14,6.14,0,0,0,259.56,28a6.56,6.56,0,0,0-.84,3.23v4.89a8.17,8.17,0,0,0,.83,3.83,6,6,0,0,0,2.34,2.5,7.17,7.17,0,0,0,3.61.87A7.59,7.59,0,0,0,268,43a5,5,0,0,0,3.21-3.07l7.68.5a10.4,10.4,0,0,1-2.39,4.82,11.86,11.86,0,0,1-4.63,3.2A17.43,17.43,0,0,1,265.36,49.56Z"/><path d="M316.83,20.55a4.91,4.91,0,0,0-2-3.66,8,8,0,0,0-4.81-1.3,9.41,9.41,0,0,0-3.49.57,4.83,4.83,0,0,0-2.17,1.59,3.75,3.75,0,0,0-.75,2.3,3.16,3.16,0,0,0,.46,1.87,4.37,4.37,0,0,0,1.37,1.37,9.5,9.5,0,0,0,2,1,20.89,20.89,0,0,0,2.46.72l3.58.85a25.48,25.48,0,0,1,4.8,1.56,14.47,14.47,0,0,1,3.77,2.4,9.89,9.89,0,0,1,2.49,3.35,10.63,10.63,0,0,1,.9,4.42,11,11,0,0,1-1.86,6.34,11.76,11.76,0,0,1-5.3,4.15A21.2,21.2,0,0,1,310,49.54a21.83,21.83,0,0,1-8.41-1.48A12.26,12.26,0,0,1,296,43.67a13,13,0,0,1-2.09-7.22h8.16a6,6,0,0,0,1.16,3.34,6.2,6.2,0,0,0,2.74,2,10.9,10.9,0,0,0,3.91.67,10.3,10.3,0,0,0,3.73-.62,5.71,5.71,0,0,0,2.46-1.74,4,4,0,0,0,.88-2.55,3.31,3.31,0,0,0-.79-2.26,6.11,6.11,0,0,0-2.3-1.56,23.09,23.09,0,0,0-3.69-1.17l-4.34-1.09a18.23,18.23,0,0,1-8-3.84,8.9,8.9,0,0,1-2.9-7,10.43,10.43,0,0,1,1.94-6.33,13,13,0,0,1,5.38-4.23,19.13,19.13,0,0,1,7.79-1.52,18.57,18.57,0,0,1,7.77,1.52A12.37,12.37,0,0,1,323,14.28a11.24,11.24,0,0,1,1.91,6.27Z"/><path d="M343.5,49.56a15.89,15.89,0,0,1-7.94-1.88,12.69,12.69,0,0,1-5.12-5.34,17.61,17.61,0,0,1-1.79-8.19,17.52,17.52,0,0,1,1.79-8.1,13.23,13.23,0,0,1,5.06-5.44,14.64,14.64,0,0,1,7.66-1.95,15.86,15.86,0,0,1,5.53.95,12.51,12.51,0,0,1,4.48,2.83,12.94,12.94,0,0,1,3,4.75,19,19,0,0,1,1.07,6.67v2.28H332V31h17.46a6.34,6.34,0,0,0-.78-3.17,5.67,5.67,0,0,0-2.15-2.17,6.26,6.26,0,0,0-3.19-.79,6.37,6.37,0,0,0-3.34.87A6.21,6.21,0,0,0,337.69,28a6.78,6.78,0,0,0-.84,3.23v4.89a8.29,8.29,0,0,0,.83,3.83,6,6,0,0,0,2.35,2.5,7.11,7.11,0,0,0,3.6.87,7.55,7.55,0,0,0,2.53-.39,5.05,5.05,0,0,0,2-1.16,5.12,5.12,0,0,0,1.25-1.91l7.67.5a10.39,10.39,0,0,1-2.38,4.82,11.9,11.9,0,0,1-4.64,3.2A17.42,17.42,0,0,1,343.5,49.56Z"/><path d="M377.46,19.05v6.24h-18V19.05Zm-13.93-7.16h8.3V39.78a3.74,3.74,0,0,0,.35,1.78,1.9,1.9,0,0,0,1,.89,3.9,3.9,0,0,0,1.47.25,5.79,5.79,0,0,0,1.17-.11l.89-.16L378,48.6c-.42.13-1,.29-1.76.46a14.24,14.24,0,0,1-2.74.32,12.52,12.52,0,0,1-5.25-.79,7.38,7.38,0,0,1-3.5-2.85,8.72,8.72,0,0,1-1.23-4.87Z"/><path d="M397.68,19.05v6.24h-18V19.05Zm-13.93-7.16h8.3V39.78a3.62,3.62,0,0,0,.35,1.78,1.88,1.88,0,0,0,1,.89,3.9,3.9,0,0,0,1.47.25,5.79,5.79,0,0,0,1.17-.11l.9-.16,1.3,6.17c-.41.13-1,.29-1.75.46a14.45,14.45,0,0,1-2.75.32,12.52,12.52,0,0,1-5.25-.79,7.43,7.43,0,0,1-3.5-2.85,8.64,8.64,0,0,1-1.22-4.87Z"/><path d="M406.16,15.2A4.49,4.49,0,0,1,403,14,4,4,0,0,1,403,8a4.43,4.43,0,0,1,3.15-1.24A4.51,4.51,0,0,1,409.33,8a4,4,0,0,1,0,5.93A4.48,4.48,0,0,1,406.16,15.2ZM402,49V19.05h8.3V49Z"/><path d="M424.1,31.68V49h-8.3V19.05h7.91v5.28h.35a8.38,8.38,0,0,1,3.33-4.14,10.13,10.13,0,0,1,5.67-1.53A10.5,10.5,0,0,1,438.49,20a9.28,9.28,0,0,1,3.61,3.88,13.22,13.22,0,0,1,1.28,6V49h-8.3V31.4a6,6,0,0,0-1.4-4.29,5.06,5.06,0,0,0-3.92-1.55,5.91,5.91,0,0,0-2.95.72,4.94,4.94,0,0,0-2,2.09A7.19,7.19,0,0,0,424.1,31.68Z"/><path d="M462.29,60.62a19.46,19.46,0,0,1-6.91-1.09,11.66,11.66,0,0,1-4.56-2.94,8.91,8.91,0,0,1-2.21-4.11l7.68-1A4.76,4.76,0,0,0,457.4,53a6,6,0,0,0,2,1.2,8.84,8.84,0,0,0,3.06.46A7.41,7.41,0,0,0,467,53.38a4.88,4.88,0,0,0,1.77-4.23V43.68h-.35A8,8,0,0,1,466.73,46a8.17,8.17,0,0,1-2.8,1.81,10.78,10.78,0,0,1-4.1.71A12.23,12.23,0,0,1,453.71,47a11,11,0,0,1-4.38-4.81A18.21,18.21,0,0,1,447.7,34a19.48,19.48,0,0,1,1.65-8.5,11.92,11.92,0,0,1,4.42-5.1,11.3,11.3,0,0,1,6.05-1.7,9.41,9.41,0,0,1,4.2.85,8.34,8.34,0,0,1,2.74,2.11,11.62,11.62,0,0,1,1.61,2.46h.31v-5h8.24V49.27a10.2,10.2,0,0,1-1.87,6.26,11.45,11.45,0,0,1-5.17,3.81A21,21,0,0,1,462.29,60.62Zm.17-18.31a5.63,5.63,0,0,0,3.4-1A6.34,6.34,0,0,0,468,38.43a12.2,12.2,0,0,0,.75-4.51,12.84,12.84,0,0,0-.74-4.57,6.68,6.68,0,0,0-2.15-3,5.46,5.46,0,0,0-3.41-1.07,5.35,5.35,0,0,0-3.44,1.1,6.68,6.68,0,0,0-2.13,3.05,13,13,0,0,0-.72,4.5,12.54,12.54,0,0,0,.73,4.47,6.36,6.36,0,0,0,2.13,2.9A5.63,5.63,0,0,0,462.46,42.31Z"/><path d="M507.34,27.59l-7.6.46a4,4,0,0,0-.84-1.76A4.53,4.53,0,0,0,497.22,25a6,6,0,0,0-2.48-.47,6.16,6.16,0,0,0-3.26.81,2.42,2.42,0,0,0-1.32,2.15,2.28,2.28,0,0,0,.86,1.81A6.84,6.84,0,0,0,494,30.51l5.41,1.09a13.51,13.51,0,0,1,6.51,2.88A6.79,6.79,0,0,1,508,39.7a8.17,8.17,0,0,1-1.72,5.16,11.21,11.21,0,0,1-4.72,3.46,17.78,17.78,0,0,1-6.88,1.24c-4,0-7.12-.83-9.46-2.48a9.63,9.63,0,0,1-4.12-6.77l8.16-.43a4.18,4.18,0,0,0,1.79,2.75,6.49,6.49,0,0,0,3.65.95,6.42,6.42,0,0,0,3.51-.85,2.58,2.58,0,0,0,1.36-2.19,2.33,2.33,0,0,0-1-1.86,6.87,6.87,0,0,0-2.88-1.12l-5.18-1a12.42,12.42,0,0,1-6.52-3A7.52,7.52,0,0,1,481.92,28a8,8,0,0,1,1.57-5,10,10,0,0,1,4.42-3.22,18.16,18.16,0,0,1,6.69-1.13q5.67,0,8.93,2.4A9.24,9.24,0,0,1,507.34,27.59Z"/><rect x="2" y="2" width="64.11" height="64.11" fill="#fff" stroke="#000" stroke-miterlimit="10" stroke-width="4"/><rect x="2" y="2" width="64.11" height="23.84" fill="#b0f6ff" stroke="#000" stroke-miterlimit="10" stroke-width="4"/></svg>